:SAMPLES-PER-SECOND 30
:FRAME-RANGE 1-3535
:FULLY-SPECIFIED
:DEGREES
2762
root  39.5201 26.8291 3.05193 -161.293 34.0793 -145.566
RightUpLeg  -63.301 -8.36387 41.3677
RightLeg  64.3135 -5.20222 -12.251
RightFoot  -3.10845 0.834743 -11.8341
RightToes  1.22775e-009 1.2921e-014 -6.02303e-014
Spine  69.5829 -8.12807 21.2113
Spine1  -4.25712 7.21143 2.68025
HEad  -41.6464 20.52 -3.44968
LeftShoulder1  1.23343 -3.81244 -9.49433
LeftArm  -27.0394 -30.1224 -5.03086
LeftForeArm  26.7776 2.5438 -14.8464
LeftHand  -0.0761076 -3.08577 1.27472
RightShoulder  9.08359 24.5772 26.059
RightArm  -12.5002 15.0969 1.70965
RightForeArm  5.07901 18.3384 6.95776
RightHand  -0.324509 3.61528 -4.43577
LeftUpLeg  -24.5411 19.3589 14.2584
LeftLeg  104.09 1.1627 -5.00838
LeftFoot  -30.8811 0.0658321 -0.698701
LeftToes  2.52163e-011 5.65494e-011 -1.09494e-012
2763
root  40.1888 27.0463 1.36852 -160.833 33.6603 -147.196
RightUpLeg  -63.9147 -8.54113 38.8438
RightLeg  68.9184 -4.10075 -12.4088
RightFoot  -7.83768 0.233658 -9.33755
RightToes  1.22775e-009 1.2921e-014 -6.02303e-014
Spine  69.7035 -8.38476 22.5647
Spine1  -6.0444 8.41369 1.63985
HEad  -41.8916 19.6961 -2.73246
LeftShoulder1  1.21291 -3.20802 -10.8413
LeftArm  -26.018 -18.3904 -1.01198
LeftForeArm  15.1736 1.80819 -14.761
LeftHand  0.0540433 -1.33457 -0.812095
RightShoulder  8.60486 28.7846 19.94
RightArm  -31.3534 22.5686 -1.03934
RightForeArm  23.0634 4.49758 10.0195
RightHand  -0.41832 3.56059 -5.67426
LeftUpLeg  -20.4408 20.2741 15.4274
LeftLeg  100.807 2.45294 -11.848
LeftFoot  -28.4988 0.312592 0.934764
LeftToes  2.52163e-011 5.65494e-011 -1.09494e-012
2764
root  40.6396 27.4592 -0.270363 -157.996 34.3563 -148.814
RightUpLeg  -65.2114 -7.3105 36.1384
RightLeg  71.2685 -3.22697 -11.4607
RightFoot  -11.1204 -0.0611762 -7.15161
RightToes  1.22775e-009 1.2921e-014 -6.02303e-014
Spine  67.5523 -8.73551 24.919
Spine1  -6.58791 9.46863 -1.56674
HEad  -41.4786 16.9353 -3.65247
LeftShoulder1  1.16883 -2.5631 -12.1617
LeftArm  -24.4463 -7.59506 2.29522
LeftForeArm  9.36465 1.8846 -14.3814
LeftHand  0.14351 -0.525808 -2.77984
RightShoulder  6.65863 32.6804 10.9018
RightArm  -36.7009 28.4616 -2.22412
RightForeArm  23.9344 -4.78758 7.53049
RightHand  -0.264094 3.43044 -3.7217
LeftUpLeg  -19.9042 22.4852 13.2079
LeftLeg  96.7042 1.88592 -13.8314
LeftFoot  -24.787 0.321977 1.46751
LeftToes  2.52163e-011 5.65494e-011 -1.09494e-012
2765
root  41.0513 27.9923 -1.88501 -153.825 35.3089 -150.473
RightUpLeg  -67.1282 -5.06771 33.0142
RightLeg  72.3088 -2.68896 -10.4069
RightFoot  -13.5951 -0.187065 -4.83898
RightToes  1.22775e-009 1.2921e-014 -6.02303e-014
Spine  64.0248 -7.85204 26.6556
Spine1  -6.73699 10.5572 -3.85197
HEad  -40.386 14.0725 -4.69362
LeftShoulder1  1.06278 -1.83826 -12.8521
LeftArm  -20.9453 3.49784 3.8426
LeftForeArm  8.88673 1.50281 -14.0929
LeftHand  0.20092 -0.706544 -3.77681
RightShoulder  4.07787 35.2439 2.13058
RightArm  -42.3606 33.0511 -3.69482
RightForeArm  23.7086 -6.79519 5.61382
RightHand  -0.173884 3.53218 -2.51275
LeftUpLeg  -22.9731 24.4281 9.68756
LeftLeg  93.3497 1.2023 -15.3499
LeftFoot  -17.192 -0.0505904 -3.00608
LeftToes  2.52163e-011 5.65494e-011 -1.09494e-012
2766
root  41.387 28.5085 -3.26193 -150.768 35.1888 -152.972
RightUpLeg  -69.2975 -3.80698 29.3526
RightLeg  72.8116 -2.43221 -9.85531
RightFoot  -15.6799 -0.182039 -2.00694
RightToes  1.22775e-009 1.2921e-014 -6.02303e-014
Spine  60.2738 -6.46152 27.4256
Spine1  -7.05037 10.6459 -4.15123
HEad  -39.355 12.3022 -4.87128
LeftShoulder1  0.92881 -1.09197 -13.1949
LeftArm  -15.0375 14.7711 4.65011
LeftForeArm  6.5318 -0.770848 -14.4834
LeftHand  0.200685 -0.340106 -4.05837
RightShoulder  2.20549 36.1538 -3.42706
RightArm  -48.0736 38.8151 -6.33453
RightForeArm  25.1851 -5.05245 4.57056
RightHand  -0.257828 3.87546 -3.49332
LeftUpLeg  -28.2495 23.689 5.95166
LeftLeg  91.746 0.94784 -17.9473
LeftFoot  -5.73197 0.448654 -8.44725
LeftToes  2.52163e-011 5.65494e-011 -1.09494e-012
2767
root  41.6585 28.8568 -4.36782 -149.036 34.2185 -155.234
RightUpLeg  -70.8721 -3.16935 26.1118
RightLeg  73.3775 -2.49904 -10.5116
RightFoot  -17.5002 -0.0775589 0.759686
RightToes  1.22775e-009 1.2921e-014 -6.02303e-014
Spine  56.2541 -5.16263 28.3155
Spine1  -6.54367 10.1161 -3.72137
HEad  -38.6936 10.7054 -4.58004
LeftShoulder1  0.839855 -0.625566 -13.333
LeftArm  -8.0549 25.3994 4.72527
LeftForeArm  3.76513 -4.82618 -14.3624
LeftHand  0.204325 -0.445801 -4.04496
RightShoulder  1.19213 35.8873 -6.26758
RightArm  -54.4113 44.4928 -8.59576
RightForeArm  27.578 1.44017 4.43026
RightHand  -0.272647 4.89138 -3.37493
LeftUpLeg  -33.7444 21.5528 3.34905
LeftLeg  91.9472 1.20394 -20.3507
LeftFoot  6.87987 1.79357 -11.4172
LeftToes  2.52163e-011 5.65494e-011 -1.09494e-012
